# xmcd CD database file
# Copyright (C) 1997 Ti Kan
#
# Track frame offsets:
#  150
#  28350
#  53325
#  70050
#  90450
#  109425
#  135375
#  153900
#  175425
#
# Disc length: 2703 seconds
#
# Revision: 1
# Processed by: cddbd v1.4b41PL1 Copyright (c) Steve Scherf et al.
# Submitted via: CDWizzard Release:4.31
#
DISCID=710a8d09
DTITLE=Pete Fountain - Basin Street Blues
DYEAR=1900
DGENRE=
TTITLE0=Basin Street Blues
TTITLE1=Honky Tonk
TTITLE2=Tin Roof Blues
TTITLE3=Georgia
TTITLE4=Amazing Grace
TTITLE5=It Had To Be You
TTITLE6=Closer Walk With Thee
TTITLE7=Up A Lazy River
TTITLE8=Deep Purple
EXTD=
EXTT0=
EXTT1=
EXTT2=
EXTT3=
EXTT4=
EXTT5=
EXTT6=
EXTT7=
EXTT8=
PLAYORDER=
